<?xml version="1.0" encoding="UTF-8"?>
<svg id="Combination" xmlns="http://www.w3.org/2000/svg" viewBox="0 0 1200 1200">
  <defs>
    <style>
      .cls-1 {
        fill: #fff;
      }
    </style>
  </defs>
  <path class="cls-1" d="M177.15,1022.85c108.22,108.22,257.71,175.15,422.86,175.15,165.14,0,314.62-66.93,422.84-175.15,108.22-108.22,175.15-257.71,175.15-422.85,0-165.14-66.93-314.63-175.15-422.85C914.63,68.93,765.14,2,600.01,2c-165.15,0-314.63,66.93-422.86,175.15C68.93,285.37,2,434.86,2,600c0,165.14,66.93,314.63,175.15,422.85ZM155.56,842.7l-.5.82c-9.31,15.2-19.06,34.57-28.96,57.59h0s0,0,0,0c0,0,0,0,0,0h0s0,0,0,0c-.57,1.31-1.82,2.18-3.23,2.29h0s0,0,0,0c0,0,0,0,0,0h-.07s-.05,0-.05,0h-.17c-1.34,0-2.58-.7-3.27-1.85-11.35-18.89-22.98-40.14-32.79-59.87h0s0,0,0,0c-.27-.54-.4-1.13-.4-1.7,0-.71.2-1.43.59-2.05h0s0-.02,0-.02c.51-.8,1.33-1.42,2.33-1.65v-.13l1.04.04c16.84.66,33.03,1.27,46.14,1.34h.01l16.58.2v.13c.94.26,1.75.88,2.25,1.74h0s0,0,0,0h0s.04.06.05.08h0s0,0,0,0h0s0,0,0,0h0s0,0,0,0h0s.02.05.04.08h0s0,0,0,0h0c.29.55.44,1.16.44,1.77,0,.37-.06.74-.17,1.1l.1.07ZM363.81,1109.97c0,1.28-.65,2.47-1.7,3.17h0s0,0,0,0h0s-.06.04-.09.06h0s0,0,0,0c0,0,0,0,0,0h0s-.03.02-.04.02h0s0,0,0,0h0s-.04.02-.06.03h0s0,0,0,0h0c-.59.35-1.26.53-1.93.53-.22,0-.44-.04-.65-.08l-.06.16-3.01-1.52c-12-6.06-26.93-13.61-37.78-19.98h0l-15.55-8.81h0c-.95-.54-1.59-1.45-1.83-2.48h-.38l.28-1.14.02-.88h.17c.33-1.02,1.07-1.88,2.09-2.32h0s0,0,0,0h0s0,0,0,0h0s0,0,0,0h0s0,0,0,0h0s0,0,0,0c0,0,0,0,0,0h0c19.3-8.43,38.32-17.91,53.5-26.68h0s0,0,0,0h0c.59-.34,1.25-.52,1.92-.52.31,0,.62.04.92.12l.14-.24.82.61,1.01.41-.16.25c.67.69,1.07,1.6,1.09,2.58l1.27,56.6v.03s0,.06,0,.06h0ZM359.32,979.81h0s.11.05.11.05l-1.33,3.97-.36,1.09-.17-.09c-.42.58-.97,1.03-1.62,1.3-27.95,11.6-60.84,17.56-93.98,17.56-18.42,0-36.91-1.84-54.68-5.61l-1.01-.22.03-.14c-.98-.51-1.69-1.43-1.95-2.51-2.87-12.21-5.5-31.67-5.5-54.51,0-30.69,4.75-67.44,20.24-100.62h0s0,0,0,0h0s0-.02.01-.02h0s0,0,0,0h0s0,0,0,0c.57-1.21,1.73-2.02,3.05-2.16l2.43-.26c55.53-5.91,122.11-17.87,177.48-52.46h0s.02-.01.02-.01h.02s20.69-12.19,20.69-12.19c.02-.06.04-.11.07-.16,0,0,0,0,0,0h0s0,0,0,0c.18-.33.41-.57.66-.74h.01c.44-.31.94-.39,1.23-.39h.02c.28,0,.61.06.9.19h.01c.24.11.48.3.69.52h0c.16.13.32.28.46.49h0c.26.42.36.89.35,1.22h0v.02c0,.25-.05.57-.18.88h0c-.14.33-.41.74-.9,1.02,0,0,0,0,0,0h0s0,0,0,0c-.15.09-.3.15-.45.19-21.18,26.85-36.1,54.23-46.56,86.48-10.57,32.59-16.59,70.17-19.82,117.1ZM776.14,978.36h0s0,.03,0,.03c-5.9,43.93-23.9,84.76-52.79,118-10.85,12.48-23.24,23.5-36.57,33.21l-86.78,63.32-86.78-63.3c-13.33-9.73-25.72-20.75-36.57-33.22-28.88-33.24-46.9-74.06-52.78-117.99h0s0-.05,0-.05c-2.23-16.98-3.3-33.86-3.3-50.52,0-44.71,7.73-87.84,21.59-127.01l4.37-12.33-.24,6.53-.24,6.54c-.21,5.58-.31,11.03-.31,16.36,0,50.98,9.44,90.46,27.38,124.46,17.94,33.99,44.46,62.58,78.82,91.55l.03.02.03.03.03.02c8,7.38,17.61,14.68,26.6,21.9,8.19,6.58,15.86,13.08,21.4,19.65,5.54-6.57,13.21-13.07,21.39-19.65,8.99-7.22,18.59-14.52,26.58-21.89l.03-.03.03-.03h.01c34.37-28.99,60.89-57.57,78.84-91.57,17.94-34,27.37-73.48,27.37-124.46,0-5.33-.1-10.78-.31-16.37l-.48-13.06,4.36,12.32c13.87,39.18,21.61,82.3,21.61,127.02,0,16.66-1.07,33.54-3.3,50.52ZM284.82,515.67l.03-.02h0c32.39-18.83,73.9-30.9,113.95-30.91,20.51,0,40.65,3.17,58.96,10.28,18.31,7.11,34.81,18.17,47.94,33.89h0s.01.02.01.02v.02s0,0,0,0c12.13,15.09,17.24,33.39,17.24,52.04-.02,30.33-13.42,61.65-32.45,82.73l-.3.33h0c-30.85,34.65-72.69,52.59-116.01,52.58-30.16,0-61.04-8.69-89.43-26.41h0s-.02-.01-.02-.01h-.01c-32.18-21.01-55.65-49.5-71.21-68.19-5.18-6.23-16.39-20.34-17.49-20.91,0,0-.58.3,0,0,.59-.3,6.02-7.34,8.45-10,4.89-5.32,11.1-12.83,18.64-21.35,15.08-17.04,35.48-38.12,61.66-54.07l.19.31-.17-.32ZM609.48,202.43c5,4.81,12.12,10.93,20.27,18.35,16.31,14.84,36.82,34.87,53.4,60.45v.02s.02.01.02.01c17.15,26.62,30.27,57.98,35.65,89.9l.39,2.33h-238.45l.39-2.33c5.38-31.94,18.5-63.31,35.68-89.93,20.4-31.47,46.74-54.56,63.89-69.87,5.71-5.1,10.41-9.34,13.45-12.65,1.74-1.88,5.81-5.57,5.81-5.76h0c0,.18,7,7.09,9.5,9.49ZM915.13,515.66l-.26.44.06-.09.21-.35h0s-.16.27-.16.27l.17-.26h.02s0,0,0,0c32.19,19.62,55.67,47.02,71.24,65.09,5.18,6.02,9.49,11.01,12.85,14.26,1.91,1.85,5.66,6.07,5.83,6.07h0c-.16,0-7.17,7.49-9.6,10.24-4.89,5.49-11.1,13.26-18.64,22.1-15.08,17.69-35.47,39.69-61.63,56.76l-.06-.08.05.09h-.02s-.01.02-.01.02c-28.4,17.72-59.27,26.41-89.44,26.41-43.32,0-85.16-17.94-116-52.58h0l-.3-.33c-19.03-21.08-32.44-52.4-32.46-82.73,0-18.64,5.11-36.95,17.25-52.03h0s0-.02,0-.02h.01s0,0,0,0c13.13-15.72,29.62-26.78,47.94-33.89,18.32-7.11,38.45-10.28,58.96-10.28,40.06,0,81.56,12.08,113.96,30.91h0s0,0,0,0h0s0,0,0,0ZM465.06,800.05c0-1.27.02-2.55.05-3.83h0l.12-4.74,3.31,3.4c30.19,30.98,71.92,51.06,115.07,54.8-44.58-27.98-70.82-72.68-70.82-119.85,0-24.01,6.8-48.62,21.34-71.9l3.91-6.25-.21,7.37c-.06,1.89-.08,3.76-.08,5.61,0,31.64,7.99,56.61,19.95,78.84,11.56,21.49,26.88,40.39,42.29,60.01,15.41-19.62,30.74-38.53,42.3-60.02,11.96-22.23,19.94-47.21,19.95-78.86,0-1.84-.03-3.69-.08-5.57l-.21-7.37,3.91,6.25c14.54,23.27,21.33,47.88,21.33,71.89,0,47.18-26.24,91.88-70.82,119.86,43.16-3.74,84.87-23.82,115.07-54.8l3.31-3.4.12,4.75c.03,1.29.05,2.58.05,3.86,0,45.31-19.74,85.78-46.24,120.85-26.51,35.07-59.85,64.82-87.36,88.76l-1.31,1.14-.66-.57-.66-.57c-27.51-23.94-60.85-53.69-87.36-88.76-26.51-35.06-46.24-75.54-46.24-120.85h0v-.03ZM568.19,553.63c-5.81-12.9-8.46-26.93-8.46-41.05.02-33.84,15.14-68.29,38.91-89.83l1.34-1.22.67.61.67.61c23.76,21.54,38.89,55.99,38.91,89.84,0,14.12-2.65,28.14-8.46,41.04-5.5,12.21-13.85,23.39-25.39,32.67,11.91,9.72,20.65,19.97,26.48,30.64,6.14,11.25,9.03,22.96,9.03,34.86,0,13.7-3.82,27.63-10.76,41.53-6.94,13.89-17.01,27.76-29.6,41.41l-.21.23-1,1.8-.33-.36-.18.19-.71-1.06-.23-.35-.43-.47c-12.59-13.65-22.66-27.52-29.61-41.41-6.94-13.89-10.76-27.82-10.76-41.53,0-11.91,2.89-23.62,9.03-34.86,5.82-10.67,14.57-20.93,26.47-30.64-11.54-9.28-19.89-20.47-25.39-32.67ZM721.26,409.83l-.06,1.06c-.67,11.47-3.82,23.94-9.26,34.38h0s0,0,0,0h0s-.01.02-.01.03h0s0,0,0,0h0c-1.24,2.4-2.7,4.53-4.11,6.6h0s0,.02,0,.02l-26.45,37.74v.1l-.19.26-.19.26c-2.44,3.37-7.26,9.83-8.87,11.93-.23.3-.39.51-.52.66h0s-2.87,3.37-2.87,3.37l-.63-4.38c-4.76-32.95-22.45-63.27-43.67-89.85l-2.59-3.25h99.52l-.06,1.06ZM574.02,408.77h4.15l-2.59,3.25c-21.23,26.58-38.92,56.91-43.68,89.85l-.63,4.38-2.87-3.37h0c-.13-.16-.29-.36-.52-.66-.23-.3-.53-.69-.87-1.15-.69-.91-1.57-2.09-2.52-3.37-1.9-2.55-4.07-5.49-5.47-7.41l-.38-.53v-.1l-26.44-37.74h0s0-.02,0-.02c-1.43-2.08-2.9-4.22-4.14-6.63h0c-5.44-10.44-8.59-22.92-9.27-34.39l-.12-2.12h95.38ZM898.98,1080.25c0,1.38-.75,2.62-1.91,3.3h0s0,0,0,0h0s-.02.01-.02.01c0,0,0,0,0,0h0l-15.57,8.83h0c-10.82,6.36-25.77,13.91-37.76,19.97l-2.02,1.02h0c-.52.26-1.11.42-1.73.42-.69,0-1.37-.19-1.98-.56h0s0,0,0,0h0s-.03-.02-.05-.03h0s0,0,0,0h0s0,0,0,0h0s0,0,0,0c-.01,0-.03-.02-.04-.03h0s0,0,0,0h0c-.81-.53-1.39-1.34-1.62-2.27h-.14l1.31-57.63c.02-.97.42-1.89,1.08-2.57l-.18-.26,1.02-.41.85-.66.14.28c.29-.07.59-.11.89-.11.66,0,1.33.17,1.92.52h0s0,0,0,0h0c15.18,8.76,34.19,18.25,53.49,26.68h0s0,0,0,0c0,0,0,0,0,0h0s0,0,.01,0h0s0,0,0,0h0s0,0,0,0c0,0,.01,0,.02.01h0s0,0,0,0h0c1.32.59,2.17,1.86,2.25,3.27v.03s0,.01,0,.01v.16s0,.02,0,.02ZM995.85,994.25l-.23.96h0s-.23.99-.23.99l-.14-.03c-.37.69-.95,1.25-1.66,1.6l.02.12-.94.2c-17.76,3.77-36.26,5.61-54.68,5.61-33.13,0-66.03-5.96-93.98-17.56-.99-.41-1.8-1.23-2.16-2.31h0s0,0,0,0h0s-1.04-3.12-1.04-3.12v-.03s-.01-.02-.01-.02h0s0,0,0,0h0c-.07-.26-.12-.53-.15-.8h0s0-.03,0-.03h0c-3.23-46.94-9.26-84.52-19.83-117.1-10.47-32.25-25.39-59.64-46.57-86.49-.15-.04-.3-.1-.45-.19,0,0,0,0,0,0h0s0,0,0,0c-.32-.19-.55-.43-.71-.67h0c-.28-.43-.36-.92-.36-1.22h0s0-.02,0-.02c0-.26.05-.58.18-.88h0c.13-.29.3-.5.49-.69.16-.21.34-.38.51-.49h.01c.39-.26.86-.37,1.21-.36h.02c.25,0,.59.05.91.19,0,0,0,0,0,0h0s0,0,0,0c.36.16.74.45,1.01.94,0,0,0,0,0,0h0s0,0,0,0c.03.05.04.1.06.15l20.77,12.22h.02s0,.01,0,.01c51.99,33.55,121.92,46.53,177.43,52.44l2.45.26c1.33.14,2.49.96,3.06,2.19,15.49,33.18,20.24,69.94,20.24,100.62,0,22.25-2.5,41.27-5.28,53.53h.01ZM1113.44,841.69h0c-9.78,19.71-21.42,40.96-32.77,59.87h0s0,.02,0,.02h0c-.7,1.12-1.92,1.82-3.27,1.83h-.24s-.04,0-.04,0c-1.39-.11-2.65-.97-3.23-2.29v-.02s-.02-.01-.02-.01c-9.88-23-19.64-42.38-28.95-57.56h0c-.37-.61-.56-1.3-.56-2,0-.35.05-.7.15-1.04l-.16-.12.48-.69.43-1.02.24.16c.46-.45,1.02-.78,1.64-.96v-.13l16.57-.2h.01c13.13-.07,29.32-.68,46.16-1.34h.17s.02,0,.02,0h0l.84-.03v.13c.38.08.74.22,1.07.42,0,0,0,0,0,0h0s0,0,0,0c.55.33.96.77,1.26,1.23.41.63.62,1.35.62,2.08,0,.21-.04.41-.07.61l.18.06-.51,1.03ZM1042.53,356.49h0c13.14-21.64,23.4-44.62,29.66-60.04.54-1.33,1.78-2.26,3.24-2.38v.07s0-.07,0-.07h.02s.04,0,.04,0h.2s.01,0,.01,0c1.32,0,2.57.66,3.28,1.81h0s0,.02,0,.02c12.26,20.05,24.46,42.2,34.38,62.43h0c.26.54.39,1.11.39,1.68,0,.72-.2,1.42-.58,2.04h0s0,.03,0,.03h0c-.71,1.11-1.93,1.76-3.23,1.76h-.12l-22.5-.69c-6.8-.22-14.37-.34-21.95-.46-6.74-.11-13.47-.22-19.69-.38h-.02s-.01,0-.01,0c-1.31-.05-2.57-.77-3.23-2.01h0s0,0,0,0c0,0,0,0,0,0h0s0,0,0-.01h0s0,0,0,0h0c-.29-.56-.45-1.17-.45-1.8,0-.68.18-1.37.55-1.97h0ZM1077.51,463.65c17.3,12.54,32.44,27.77,45.42,44.69l70.32,91.75-65.71,88.7c-11.71,15.82-25.3,30.23-40.82,42.4-26.57,20.83-57.37,35.11-89.79,41.28h0c-21.94,4.25-45.62,6.45-69.16,6.6-.71,0-1.41,0-2.11,0-43.46,0-86.44-8.67-126.96-24.37l-26.84-10.39,37.41,6.26c11.88,1.98,23.85,2.97,35.77,2.97,41.67,0,82.75-12.1,117.26-36.13,2.03-1.41,4.01-2.82,5.94-4.28l.04-.03h.02c24.79-17.7,43.39-37.54,60.05-57.23,16.21-19.15,30.59-38.15,47.05-54.8-16.83-16.89-31.18-35.99-47.46-55.23-16.74-19.79-35.52-39.73-61.17-57.71h0s0-.01,0-.01h-.02s-.01-.02-.01-.02h0c-37.61-27.9-83.32-43.12-130.1-43.12-1.85,0-3.71.02-5.56.07l-51.67,2.66,12.43-4.56c40.29-14.77,84.86-23.06,130.92-23.06,22.45,0,45.24,1.97,68.06,6.12,31.08,5.66,60.72,18.57,86.69,37.41ZM836.15,90.02c0-1.28.65-2.46,1.7-3.17h0s0,0,0,0h0s.03-.02.04-.03h0s0,0,0,0h0s0,0,0,0l8.11-5.32-4.9,4.9c.19.06.39.12.58.21l13.77,6.92h.01s.02.01.02.01c11.64,5.88,23.59,12.72,35.12,19.31l5.51,3.15h.01s0,.01,0,.01h0c1.17.69,1.9,1.94,1.9,3.3v.02h0s0,.16,0,.16h0s0,.02,0,.02v.02c-.07,1.15-.65,2.2-1.57,2.86l.03.1-.79.33c-18.76,7.87-37.36,16.98-52.35,25.62l-.03.02h-.02s0,.01,0,.01h0c-.57.31-1.21.48-1.85.48-.65,0-1.31-.16-1.91-.5h0s-.01,0-.01,0h-.02c-1.16-.7-1.89-1.95-1.89-3.31h0c-.07-15.44-.55-33.93-1.46-54.96h0s.67-.03.67-.03l-.67.02v-.13s0-.02,0-.02ZM785.16,402.08h0c34.19-54.97,46.87-122.54,53.22-184.39.14-1.37,1.01-2.56,2.27-3.11h0s0,0,0,0h0s.02,0,.03-.01h0s0,0,0,0c0,0,0,0,0,0h0c32.68-13.98,65.55-18.25,93.55-18.25,22.77,0,42.34,2.82,56,5.58h.02s.01,0,.01,0c1.46.3,2.61,1.43,2.94,2.91h0s0,0,0,0c0,.04.02.07.03.11h0s0,0,0,0h0s0,0,0,0h0s0,0,0,0c0,0,0,0,0,0h0s0,0,0,.01h0c3.77,19.55,5.67,38.38,5.67,56.64,0,31.25-5.55,60.81-16.7,89.29h0s0,0,0,0h0s-2.43,6.27-2.43,6.27h0s0,0,0,0h0c-.54,1.36-1.79,2.29-3.24,2.41h0s-.04,0-.04,0h-.02c-44.76,3.07-81.94,9.39-114.45,20.16-32.27,10.69-59.95,25.77-85.97,46.48h0c-.2.36-.45.59-.73.75h-.01c-.25.16-.54.24-.74.26-.19.06-.4.11-.64.11h0c-.42,0-.79-.12-1.12-.32,0,0,0,0,0,0h0s0,0,0,0c-.31-.19-.53-.44-.67-.66h0c-.26-.41-.36-.88-.35-1.22h0s0-.02,0-.02c0-.25.05-.59.2-.91,0,0,0,0,0,0h0s0,0,0,0c.16-.36.45-.74.94-1.01,0,0,0,0,0,0h0s0,0,0,0c.04-.02.08-.03.13-.05l12.08-21.05.02-.02ZM423.84,221.29h0s0-.03,0-.03c5.9-43.93,23.9-84.76,52.79-118,10.85-12.48,23.24-23.5,36.57-33.21l86.78-63.32,86.78,63.3c13.33,9.73,25.72,20.75,36.57,33.22,28.88,33.24,46.9,74.06,52.78,117.99h0s0,.05,0,.05c2.23,16.98,3.3,33.86,3.3,50.52,0,44.71-7.73,87.83-21.59,127.01l-4.38,12.38.25-6.57.25-6.56c.21-5.58.31-11.04.31-16.36,0-50.98-9.44-90.46-27.38-124.46-17.95-34-44.47-62.58-78.83-91.56h0s-.02-.02-.02-.02l-.02-.02h-.02s0-.02,0-.02c-8-7.38-17.61-14.68-26.6-21.9-8.19-6.58-15.86-13.08-21.4-19.65-5.54,6.57-13.21,13.07-21.39,19.65-8.99,7.22-18.6,14.52-26.59,21.9h-.01s-.03.03-.03.03h0s-.01.02-.01.02h0c-34.37,28.99-60.9,57.57-78.84,91.57-17.94,34-27.37,73.48-27.37,124.46,0,5.33.1,10.78.31,16.37l.5,13.14-2.19-6.21-2.19-6.19c-13.87-39.18-21.61-82.31-21.61-127.02,0-16.66,1.07-33.54,3.3-50.52ZM301.9,119.31c0-1.37.74-2.64,1.93-3.32h.02s0-.01,0-.01l6.08-3.47c11.36-6.49,23.12-13.19,34.54-18.97h.03s0-.02,0-.02l13.77-6.92h0s0,0,0,0h.02c.53-.27,1.12-.4,1.7-.4.71,0,1.42.2,2.04.58h.01s.04.03.04.03c1.1.72,1.73,1.94,1.74,3.21v.11s0,.02,0,.02h0s0,.03,0,.03c-.89,20.99-1.39,39.48-1.46,54.95h0s0,0,0,0h0s0,0,0,0c0,1.36-.73,2.61-1.89,3.3h-.01s-.02.02-.02.02h-.01s0,0,0,0c-.58.32-1.22.5-1.87.49-.67,0-1.33-.17-1.91-.51h-.01s-.01-.01-.01-.01c-15.01-8.66-33.64-17.75-52.36-25.61l-.99-.41.07-.13c-.83-.67-1.35-1.66-1.41-2.75h0s0-.02,0-.02v-.19s0-.02,0-.02ZM206.69,204.96h0s0-.01,0-.02h0s0,0,0,0c0,0,0,0,0,0h0s0,0,0,0h0,0s0,0,0,0c0-.04.02-.07.03-.11h0s0,0,0,0h0c.33-1.48,1.5-2.61,2.97-2.91,13.66-2.75,33.22-5.58,55.99-5.58,28.01,0,60.89,4.27,93.57,18.25h0c1.28.55,2.16,1.74,2.3,3.12,6.35,61.83,19.72,130.42,53.23,184.38v.02s12.1,21.06,12.1,21.06c.04.02.08.03.12.05h0s0,0,0,0c0,0,0,0,0,0h0c.32.18.56.41.73.66h0c.3.44.39.95.39,1.25v.02c0,.28-.06.6-.18.9h0c-.12.29-.38.7-.82.98-.33.21-.71.33-1.14.33h0c-.25,0-.46-.05-.65-.11-.11-.02-.23-.04-.35-.08,0,0,0,0,0,0h0s0,0,0,0c-.18-.06-.36-.15-.56-.29-.19-.14-.38-.34-.54-.6l-.02-.04c-26.02-20.71-53.7-35.78-85.97-46.47-32.51-10.77-69.68-17.09-114.44-20.16h-.02s-.03,0-.03,0h0s0,0,0,0c-1.43-.12-2.7-1.03-3.25-2.4h0s0-.02,0-.02h0s-2.43-6.27-2.43-6.27h0c-11.14-28.48-16.69-58.03-16.69-89.29,0-18.27,1.89-37.1,5.66-56.64h0ZM86.76,357.75h.1c9.86-20.07,21.95-42,34.09-61.86h0s0-.01,0-.01h0c.57-.92,1.48-1.51,2.48-1.72v-.38l1.15.3.96.03-.02.2c1.01.37,1.82,1.14,2.23,2.15,6.28,15.44,16.54,38.41,29.68,60.03h0c.37.6.56,1.29.56,1.98,0,.63-.16,1.26-.46,1.82h0s0,0,0,0c0,0,0,0,0,0h0s0,.03,0,.03c-.67,1.21-1.91,1.93-3.23,1.98h-.01s-.02,0-.02,0h0c-6.2.16-12.95.27-19.69.38-7.58.12-15.15.24-21.94.46l-22.51.69h-.12c-1.28,0-2.47-.65-3.17-1.7h0s0,0,0,0h0s-.03-.04-.04-.06h0s0,0,0,0h0s0-.01-.01-.02h0s0,0,0,0h0s0-.01-.01-.02h0s0,0,0,0h0c-.38-.62-.59-1.32-.59-2.02,0-.24.04-.48.08-.72l-.13-.07.42-.84.21-.62ZM122.46,463.65c25.95-18.84,55.62-31.75,86.68-37.41,22.83-4.15,45.62-6.12,68.07-6.11,46.06,0,90.62,8.29,130.92,23.06l12.45,4.55-51.69-2.65c-1.86-.05-3.71-.07-5.56-.07-46.76,0-92.47,15.2-130.04,43.08h0s-.07.05-.07.05l-.02.02h-.01c-25.64,17.98-44.43,37.93-61.17,57.71-16.28,19.24-30.63,38.34-47.46,55.23,16.47,16.65,30.85,35.65,47.06,54.8,16.67,19.69,35.27,39.54,60.06,57.22h0s.02.02.02.02h.01c1.95,1.48,3.93,2.88,5.96,4.3,34.49,24.03,75.58,36.13,117.25,36.13,11.92,0,23.89-.99,35.77-2.97l37.45-6.28-26.86,10.4c-40.52,15.71-83.51,24.37-126.97,24.37-.71,0-1.41,0-2.11,0-23.53-.15-47.21-2.35-69.16-6.6h0c-32.42-6.17-63.22-20.45-89.79-41.28-15.52-12.17-29.11-26.58-40.82-42.4L6.71,600.1l70.32-91.76c12.98-16.92,28.14-32.15,45.43-44.69Z"/>
</svg>