<?xml version="1.0" encoding="UTF-8"?>
<svg id="SocialMedia_Combo" xmlns="http://www.w3.org/2000/svg" viewBox="0 0 1600 1600">
  <path d="M800.01,200c-331.38,0-600.01,268.63-600.01,600s268.63,600,600.01,600,599.99-268.63,599.99-600S1131.37,200,800.01,200ZM1244.24,557.52c13.22-21.78,23.51-44.83,29.81-60.32.26-.64.85-1.08,1.54-1.14.69-.04,1.34.28,1.71.87,12.22,19.99,24.41,42.1,34.29,62.27.28.57.24,1.25-.09,1.79-.34.53-.92.84-1.54.84h-.05l-22.5-.69c-6.82-.22-14.4-.34-21.98-.46-6.74-.11-13.47-.22-19.67-.38-.65-.03-1.25-.38-1.54-.95-.31-.58-.3-1.27.04-1.83ZM1038.99,288.49c.54-.35,1.23-.38,1.8-.09l13.79,6.93c11.57,5.85,23.5,12.67,35.03,19.26l5.5,3.14c.61.35.96,1,.92,1.69-.04.7-.47,1.31-1.11,1.57-18.83,7.91-37.49,17.04-52.57,25.73-.28.16-.6.24-.91.24s-.64-.08-.92-.24c-.55-.33-.91-.93-.91-1.58-.07-15.47-.55-33.99-1.46-55.04-.03-.64.3-1.26.84-1.61ZM1040.38,417.9c.07-.66.49-1.23,1.1-1.49,58.69-25.11,118.17-18.64,148.4-12.55.72.15,1.29.72,1.42,1.45,10.18,52.7,6.59,100.07-10.92,144.85l-2.44,6.28c-.26.65-.87,1.1-1.57,1.15-89.75,6.16-149.38,25.35-202.12,67.53-.33.27.41,0,0,0-.45,0,.35.32,0,0-.65-.61-.51.74,0,0l12.61-21.98c34.46-55.41,47.15-123.28,53.52-185.25ZM799.98,624.23c42.75,38.7,57.38,120.84,3.21,162.06,54.86,43.25,43.55,96.5-3.13,147.1l-.08-.12-.07.12c-46.69-50.6-57.99-103.85-3.14-147.1-54.16-41.22-39.54-123.36,3.21-162.06ZM825.96,610.77h93.25c-.65,11.19-3.75,23.45-9.04,33.58-1.16,2.27-2.59,4.35-4.01,6.43l-26.82,38.25v.08c-2.76,3.82-8.68,11.74-9.3,12.47-4.85-33.48-22.75-64.08-44.09-90.82ZM683.12,571.49c5.32-31.62,18.34-62.77,35.38-89.18,32.85-50.69,81.47-79.66,81.47-89.37,0,9.71,48.62,38.67,81.49,89.37,17.03,26.41,30.05,57.56,35.37,89.18h-233.72ZM774.02,610.77c-21.35,26.73-39.26,57.34-44.1,90.82-.62-.73-6.52-8.65-9.3-12.47v-.08l-26.8-38.25c-1.43-2.08-2.86-4.16-4.02-6.43-5.29-10.14-8.39-22.39-9.04-33.58h93.26ZM704.17,730.19c31,38.58,15.07,98.76-15.13,132.17-51.7,58.37-134.63,68.94-203.19,26.15-51.8-33.8-81.08-87.42-90.96-87.42,9.88,0,39.16-52.16,90.96-83.71,64.92-37.75,167.33-48.22,218.33,12.81ZM667.11,996.26c32.46,33.3,78.02,54.12,124.59,55.92-71.74-40.46-99.9-122.73-55.86-193.2-1.98,67.44,31.4,105.92,64.15,147.75,32.76-41.83,66.12-80.31,64.16-147.75,44.02,70.47,15.86,152.74-55.88,193.2,46.58-1.8,92.13-22.62,124.59-55.92,2.26,91.22-77.1,163.4-132.87,211.91-55.77-48.51-135.13-120.69-132.87-211.91ZM910.94,862.36c-30.2-33.41-46.14-93.59-15.13-132.17,50.98-61.02,153.41-50.56,218.33-12.81,51.79,31.55,81.08,83.71,90.96,83.71-9.88,0-39.17,53.62-90.96,87.42-68.57,42.79-151.51,32.22-203.19-26.15ZM625.82,421.55c5.85-43.57,23.69-84.03,52.32-116.98,10.73-12.35,23.01-23.27,36.24-32.91l85.6-62.46,85.6,62.44c13.22,9.65,25.5,20.58,36.24,32.92,28.63,32.95,46.48,73.41,52.32,116.98,8.18,62.23.73,123.13-18.19,176.61,4.2-112.93-34.07-172.82-106.61-233.99-16.2-14.94-38.55-29.28-49.35-43.25-10.79,13.97-33.15,28.3-49.34,43.25-72.55,61.17-110.81,121.06-106.61,233.99-18.94-53.48-26.38-114.38-18.21-176.61ZM504.82,317.73l6.11-3.48c11.36-6.48,23.09-13.17,34.45-18.92l13.79-6.93c.58-.28,1.26-.24,1.81.09.54.35.85.97.83,1.61-.89,21.01-1.39,39.53-1.46,55.04,0,.65-.35,1.26-.91,1.58-.28.16-.6.24-.91.24s-.64-.08-.92-.24c-15.11-8.72-33.8-17.84-52.6-25.73-.64-.26-1.07-.87-1.11-1.57-.04-.69.31-1.34.92-1.69ZM408.66,405.31c.14-.73.7-1.3,1.43-1.45,30.23-6.09,89.69-12.55,148.38,12.55.61.26,1.03.83,1.1,1.49,6.38,61.97,19.75,130.84,53.54,185.26l12.6,21.97c.5.74.66-.61,0,0-.35.32.45,0,0,0-.39,0,.34.27,0,0-52.72-42.18-112.38-61.37-202.11-67.53-.7-.05-1.33-.5-1.58-1.15l-2.44-6.28c-17.52-44.76-21.09-92.16-10.92-144.85ZM288.38,559.2c9.88-20.16,22.06-42.27,34.29-62.27.37-.58,1.03-.91,1.71-.87.69.05,1.29.5,1.54,1.14,6.31,15.5,16.6,38.55,29.82,60.32.34.55.35,1.25.04,1.83-.31.57-.91.92-1.56.95-6.19.16-12.93.27-19.67.38-7.58.12-15.16.24-21.97.46l-22.51.69h-.05c-.62,0-1.19-.31-1.53-.84-.35-.54-.39-1.22-.11-1.79ZM353.35,1042.48c-9.38,15.31-19.17,34.76-29.09,57.84-.27.62-.87,1.04-1.56,1.1h-.12c-.64,0-1.23-.34-1.56-.88-11.32-18.84-22.93-40.05-32.72-59.74-.28-.57-.24-1.26.09-1.8.35-.54.93-.88,1.61-.83,16.84.66,33.04,1.27,46.21,1.34l15.59.19c.65,0,1.26.37,1.57.93.32.58.31,1.29-.04,1.84ZM314.48,929.62c-15.36-12.05-28.83-26.33-40.45-42.02l-64.81-87.49,69.4-90.56c12.87-16.78,27.9-31.88,45.02-44.29,25.72-18.67,55.11-31.46,85.86-37.06,69.31-12.59,138.34-5,197.94,16.85l-38.48-1.98c-49.16-1.27-97.49,14.16-136.92,43.44-51.68,36.22-75.68,80.39-110.29,114.57,33.85,33.69,58.8,78.01,108.76,113.65,1.98,1.49,3.98,2.91,6.02,4.33,44.82,31.23,100.63,42.49,154.49,33.49l18.1-3.03-8.57,3.32c-40.96,15.88-84.44,24.51-128.35,24.23-23.42-.15-46.98-2.34-68.79-6.57-32.09-6.1-62.61-20.25-88.93-40.89ZM407.7,1196.13c-.69-.14-1.23-.68-1.39-1.37-6.63-28.18-12.12-96.62,14.61-153.83.27-.58.83-.97,1.46-1.04l2.44-.26c55.65-5.93,122.52-17.9,178.33-52.75l21.66-12.75c.74-.51-.62-.66,0,0,.62.66.56-.72,0,0-43.33,54.55-60.99,111.48-67.46,205.53-.01.15-.04.3-.09.45l-1.03,3.07c-.16.5-.54.89-1.03,1.1-27.65,11.48-60.32,17.41-93.21,17.41-18.29,0-36.64-1.83-54.27-5.56ZM560.96,1311.51c-.3.19-.64.28-.97.28-.27,0-.55-.07-.81-.2l-2.02-1.02c-12.01-6.06-26.94-13.62-37.7-19.94l-15.55-8.81c-.6-.34-.95-.99-.92-1.68.04-.69.46-1.3,1.1-1.57,19.37-8.46,38.46-17.98,53.73-26.79.56-.32,1.25-.34,1.8-.01.57.31.92.91.93,1.54l1.27,56.61c.01.65-.31,1.25-.85,1.58ZM974.16,1178.1c-5.85,43.57-23.69,84.03-52.32,116.98-10.73,12.35-23.01,23.27-36.24,32.91l-85.6,62.46-85.6-62.44c-13.22-9.65-25.5-20.58-36.24-32.92-28.63-32.95-46.48-73.41-52.32-116.98-8.18-62.23-.73-123.13,18.19-176.61-4.2,112.93,34.07,172.82,106.61,233.99,16.2,14.94,38.55,29.28,49.35,43.25,10.79-13.97,33.15-28.3,49.34-43.25,72.55-61.17,110.81-121.06,106.61-233.99,18.94,53.48,26.38,114.38,18.21,176.61ZM1096.06,1281.83l-15.57,8.83c-10.73,6.31-25.68,13.86-37.67,19.93l-2.02,1.02c-.27.14-.54.2-.83.2-.34,0-.68-.09-.97-.28-.54-.34-.87-.93-.85-1.58l1.29-56.61c.01-.64.37-1.23.92-1.54.57-.32,1.26-.31,1.81.01,15.27,8.81,34.34,18.33,53.71,26.79.64.27,1.06.88,1.1,1.57.04.69-.32,1.34-.92,1.68ZM1193.67,1194.76c-.16.69-.72,1.23-1.41,1.37-17.61,3.74-35.98,5.56-54.27,5.56-32.89,0-65.56-5.93-93.21-17.41-.49-.2-.87-.6-1.03-1.1l-1.03-3.07c-.04-.15-.07-.3-.08-.45-6.48-94.05-24.15-150.98-67.48-205.53-.56-.72-.61.66,0,0,.62-.66-.74-.51,0,0l21.67,12.75c52.49,33.85,122.67,46.82,178.31,52.75l2.45.26c.64.07,1.19.46,1.46,1.04,26.72,57.2,21.24,125.64,14.61,153.83ZM1311.65,1040.8c-9.76,19.65-21.37,40.87-32.7,59.74-.34.54-.93.88-1.57.88h-.12c-.68-.05-1.29-.47-1.56-1.1-9.91-23.08-19.71-42.54-29.09-57.84-.34-.55-.37-1.26-.04-1.84.31-.57.92-.93,1.57-.93l15.58-.19c13.18-.07,29.39-.68,46.23-1.34.73-.05,1.26.28,1.61.83.35.54.39,1.23.1,1.8ZM1285.48,929.62c-26.33,20.64-56.84,34.79-88.93,40.89-21.81,4.22-45.37,6.42-68.79,6.57-43.91.28-87.38-8.35-128.34-24.23l-8.58-3.32,18.1,3.03c53.87,9,109.67-2.26,154.5-33.49,2.04-1.42,4.05-2.84,6.01-4.33,49.98-35.64,74.92-79.96,108.76-113.65-34.61-34.18-58.61-78.35-110.29-114.57-39.46-29.28-87.76-44.71-136.92-43.44l-38.48,1.98c59.6-21.85,128.65-29.44,197.94-16.85,30.77,5.6,60.14,18.4,85.87,37.06,17.12,12.41,32.14,27.51,45.01,44.29l69.4,90.56-64.81,87.49c-11.61,15.69-25.08,29.97-40.45,42.02Z"/>
</svg>