<?xml version="1.0" encoding="UTF-8"?>
<svg id="Insignia" xmlns="http://www.w3.org/2000/svg" viewBox="0 0 1200 1200">
  <path d="M672.69,685.42c2.35,44.65-21.83,108.61-71.84,157.96l-.73.73-.16-.16-.08.16-.73-.73c-50.08-49.35-74.19-113.32-71.84-157.96,2.11-38.96,24.51-75.9,66.72-109.75-15.67-12.01-28.41-26.46-38.96-44.24-34.9-58.6-34.58-132.55.73-192.94,19.64-33.69,41.88-56.01,42.05-56.25l2.11-2.51,2.19,2.51c.16.24,22.4,22.57,42.05,56.25,35.31,60.39,35.63,134.34.73,192.94-10.55,17.78-23.3,32.23-38.96,44.24,42.21,33.85,64.61,70.78,66.72,109.75ZM552.47,255.28h-159.34l-3.98,6.9c-1.87,3.17-1.38,7.23,1.14,10.07,38.56,42.62,64.7,94.08,81.74,148.71l.73-4.3c9.33-58.77,41.07-112.51,78.41-159.75l1.3-1.62ZM810.44,262.18l-3.98-6.9h-159.34l1.3,1.62c37.34,47.24,69.08,100.98,78.41,159.75l.73,4.3c17.05-54.63,43.18-106.09,81.74-148.71,2.52-2.84,3-6.9,1.14-10.07ZM1200,600c0,331.37-268.63,600-600,600S0,931.37,0,600,268.63,0,600,0s600,268.63,600,600ZM920.67,834.04c-45.78-22.48-86.29-55.77-117.05-96.27-17.53-23.13-31.41-48.78-41.32-76.22-17.37-48.3-22.08-101.71-13.48-154.47,8.44-52.19,30.28-104.71,63.23-151.95,10.55-15.02,28.01-37.34,37.5-49.27,13.07-16.72,26.14-32.88,33.12-41.56l.73-.89c1.95-2.44,2.19-5.84.57-8.69l-14.12-24.11c-4.22-7.14-11.93-11.61-20.13-11.61h-499.45c-8.2,0-15.91,4.46-20.13,11.61l-14.12,24.11c-1.62,2.84-1.38,6.25.57,8.69l.73.89c6.98,8.69,20.05,24.84,33.12,41.56,9.5,11.93,26.95,34.25,37.5,49.27,32.96,47.24,54.79,99.76,63.23,151.95,8.6,52.76,3.9,106.17-13.47,154.47-9.9,27.44-23.78,53.09-41.32,76.22-30.76,40.5-71.27,73.79-117.05,96.27,29.06,83.12,91.81,153.5,172.33,192.94,41.48,20.29,87.34,32.06,133.12,34.01-64.94-39.86-140.51-109.66-140.18-218.76,0-68.75,30.2-120.38,30.52-120.86l7.71-12.99v15.18c.24,78.41,33.2,141.48,60.8,180.53,10.47,14.93,20.94,28.17,30.2,39.85,10.07,12.66,18.67,23.62,24.43,33.12.4.73.97,1.06,1.7,1.06.81,0,1.38-.33,1.79-1.06,5.68-9.5,14.37-20.46,24.43-33.12,9.25-11.69,19.72-24.92,30.2-39.85,27.6-39.04,60.55-102.12,60.8-180.53v-15.18l7.71,12.99c.32.49,30.52,52.11,30.52,120.86.33,109.1-75.25,178.9-140.18,218.76,45.78-1.95,91.64-13.72,133.12-34.01,80.52-39.45,143.27-109.83,172.33-192.94Z"/>
</svg>