<?xml version="1.0" encoding="UTF-8"?>
<svg id="Vertical" xmlns="http://www.w3.org/2000/svg" viewBox="0 0 2200 1287.36">
  <defs>
    <style>
      .cls-1 {
        fill: #fff;
      }
    </style>
  </defs>
  <polygon class="cls-1" points="1167.82 911.91 1167.82 902.25 1049.17 902.25 1049.17 911.93 1093.74 933.6 996.9 1167.46 992.92 1167.46 894.98 934.17 940.1 911.92 940.1 902.25 767.42 902.25 767.42 911.91 806.63 934.24 952.87 1280.14 985.75 1280.14 1135.77 930.24 1167.82 911.91"/>
  <polygon class="cls-1" points="1364.65 911.92 1364.65 902.25 1187.01 902.25 1187.01 911.92 1233.88 935.36 1233.88 1247.03 1187.01 1270.46 1187.01 1280.14 1364.65 1280.14 1364.65 1270.47 1317.79 1247.03 1317.79 935.36 1364.65 911.92"/>
  <path class="cls-1" d="M686.9,1279.98h0s.1.16.1.16h120.16v-9.66l-39.79-22.92-100.8-160.41-.95-1.51,1.65-.68c21.12-8.68,38.45-20.45,51.59-34.99,13.6-15.07,20.47-33.24,20.48-54.23,0-14.52-2.83-27.51-8.41-38.94-5.59-11.43-13.94-21.32-25.08-29.63-22.12-16.48-52.85-24.93-91.45-24.93h-188.9v9.67l46.87,23.43v311.67l-46.87,23.43v9.67h172.13v-9.66l-41.35-24.01v-141.23h28.71l101.91,174.74ZM556.28,1076.58v-142.24h21.73c12.5,0,23.58,1.53,33.18,4.61,9.6,3.08,17.71,7.71,24.22,13.88,6.47,6.15,11.36,13.64,14.6,22.35,3.25,8.71,4.87,18.64,4.87,29.71,0,10.53-1.65,20.17-4.95,28.83-3.3,8.67-8.25,16.35-14.8,22.95-6.56,6.62-14.4,11.61-23.4,14.93-9,3.32-19.17,4.98-30.4,4.98h-25.04Z"/>
  <path class="cls-1" d="M1367.61,112.35C1299.12,43.86,1204.52,1.5,1100,1.5c-104.52,0-199.12,42.36-267.62,110.85-68.49,68.49-110.85,163.1-110.85,267.61,0,104.51,42.36,199.12,110.85,267.61,68.49,68.49,163.1,110.85,267.62,110.85,104.51,0,199.12-42.36,267.61-110.85,68.49-68.49,110.85-163.1,110.85-267.61,0-104.52-42.36-199.12-110.85-267.61ZM1380.04,225.63c8.31-13.69,14.8-28.22,18.77-37.98,0,0,0,0,0,0h0s0,0,0,0c.37-.92,1.23-1.57,2.25-1.65h.03s.16,0,.16,0c.9,0,1.78.46,2.28,1.25v.02c7.78,12.7,15.51,26.73,21.79,39.55,0,0,0,0,0,0h0s0,0,0,0c.19.37.28.78.28,1.18,0,.5-.14.99-.4,1.41v.02c-.51.77-1.36,1.22-2.25,1.22h-.06l-14.27-.44c-4.3-.14-9.1-.21-13.9-.29-4.27-.07-8.53-.14-12.47-.24h-.02c-.9-.04-1.78-.53-2.24-1.4,0,0,0,0,0,0h0s0,0,0,0c-.21-.39-.32-.82-.32-1.26,0-.47.13-.95.39-1.37h0ZM1250.53,54.78s0,0,0,0h0s0,0,0,0c.44-.29.94-.43,1.44-.43.41,0,.82.09,1.19.28h0s8.73,4.39,8.73,4.39h0c7.38,3.73,14.95,8.06,22.25,12.24l3.48,1.99h0c.82.47,1.34,1.36,1.34,2.31v.1s0,.02,0,.02v.03c-.06,1-.68,1.9-1.62,2.29h0c-11.87,4.99-23.65,10.75-33.13,16.22h0c-.4.23-.86.36-1.32.35-.46,0-.9-.11-1.33-.35h-.01c-.82-.49-1.31-1.35-1.32-2.3h0c-.04-9.77-.35-21.48-.92-34.79h0v-.11c0-.91.45-1.73,1.21-2.23ZM1217.06,254.5c21.63-34.75,29.65-77.52,33.68-116.67h0c.1-.96.71-1.8,1.6-2.17h0c20.73-8.86,41.58-11.57,59.34-11.57,14.45,0,26.86,1.79,35.52,3.54h0c1.04.22,1.87,1.04,2.07,2.11h0c2.39,12.38,3.6,24.33,3.6,35.92,0,19.82-3.52,38.57-10.59,56.63h0s-1.54,3.97-1.54,3.97h0c-.38.96-1.26,1.6-2.27,1.68h-.01c-28.33,1.94-51.86,5.94-72.42,12.76-20.41,6.76-37.9,16.29-54.36,29.39-.13.2-.29.37-.46.48-.24.14-.43.2-.58.22-.14.04-.29.07-.46.08-.29,0-.6-.09-.83-.24-.23-.14-.39-.32-.5-.49-.21-.33-.26-.62-.27-.91,0-.21.03-.43.15-.68.11-.25.34-.55.7-.75,0,0,.02,0,.02,0l7.61-13.27v-.02ZM1171.1,282.08h0s0,0,0,0c-.8,1.55-1.74,2.91-2.63,4.23v.02s-16.72,23.84-16.72,23.84v.06l-.28.39c-1.55,2.14-4.6,6.23-5.62,7.56-.15.2-.25.32-.34.43l-2.15,2.53-.48-3.28c-3.01-20.8-14.18-39.97-27.61-56.79l-1.94-2.44h63.76l-.09,1.59c-.43,7.3-2.43,15.22-5.89,21.87h0ZM1079.64,350.69c-3.69-8.21-5.38-17.12-5.38-26.09,0-10.75,2.41-21.59,6.7-31.46,4.29-9.86,10.46-18.76,18.01-25.6l1.01-.91,1.01.91c7.56,6.84,13.73,15.74,18.02,25.6,4.29,9.87,6.7,20.71,6.7,31.46,0,8.97-1.68,17.88-5.38,26.09-3.46,7.69-8.72,14.73-15.94,20.59,7.45,6.12,12.95,12.57,16.62,19.29,3.91,7.16,5.75,14.62,5.75,22.19,0,8.72-2.43,17.58-6.84,26.4-4.41,8.82-10.8,17.62-18.78,26.28l-.12.13-.78,1.4-.25-.28-.15.16-.75-1.13-.26-.28c-7.98-8.65-14.38-17.45-18.79-26.28-4.41-8.82-6.84-17.68-6.84-26.4,0-7.57,1.84-15.03,5.75-22.19,3.67-6.73,9.17-13.18,16.62-19.29-7.22-5.86-12.48-12.91-15.94-20.59ZM1025.98,236.75h-1.77l.29-1.75c3.41-20.26,11.73-40.15,22.63-57.04h0c12.94-19.96,29.64-34.6,40.5-44.3,3.62-3.23,6.59-5.91,8.5-7.99,1.09-1.18,1.84-2.18,2.15-2.84.17-.35.21-.58.2-.65h3c0,.07.03.3.2.65.17.35.45.8.85,1.32.8,1.05,2.04,2.36,3.62,3.87,3.16,3.04,7.67,6.92,12.83,11.61,10.33,9.4,23.34,22.1,33.86,38.32h0c10.88,16.89,19.21,36.78,22.62,57.04l.29,1.75h-149.78ZM1083.55,258.63h3.12l-1.94,2.44c-13.43,16.82-24.61,35.99-27.62,56.79l-.48,3.29-2.15-2.53c-.09-.11-.19-.23-.34-.43-.15-.19-.33-.44-.55-.73-.44-.58-1-1.32-1.6-2.13-1.21-1.62-2.58-3.48-3.47-4.69l-.29-.39v-.07l-16.7-23.84h0c-.91-1.33-1.85-2.69-2.64-4.24,0,0,0,0,0,0h0s0,0,0,0c-3.46-6.65-5.46-14.57-5.89-21.87l-.09-1.59h60.65ZM1040.46,334.79l.02.02c7.72,9.61,10.97,21.26,10.97,33.1-.02,19.27-8.52,39.14-20.6,52.54,0,0,0,0,0,0h0s0,0,0,0c-19.6,22.14-46.25,33.6-73.84,33.59-19.15,0-38.74-5.51-56.75-16.76l-.03-.02c-20.42-13.33-35.29-31.38-45.15-43.23-3.28-3.94-6-7.2-8.12-9.31-1.2-1.2-2.23-2.03-2.89-2.36-.35-.19-.58-.22-.62-.22v-3c.06,0,.29-.03.64-.21.35-.18.81-.48,1.34-.91,1.06-.86,2.4-2.18,3.94-3.86,3.09-3.36,7.02-8.12,11.8-13.52,9.56-10.8,22.49-24.17,39.1-34.29l.03-.02c20.55-11.95,46.87-19.6,72.28-19.61,13.01,0,25.79,2.01,37.42,6.53,11.63,4.51,22.11,11.54,30.46,21.53ZM1014.34,504.21l.09-3.55,2.48,2.54c18.85,19.34,44.82,31.96,71.73,34.54-27.78-17.79-44.11-45.91-44.11-75.57,0-15.25,4.32-30.88,13.55-45.65l2.93-4.69-.16,5.53c-.04,1.2-.05,2.38-.05,3.54,0,20,5.05,35.76,12.6,49.81,7.26,13.5,16.88,25.39,26.57,37.73,9.7-12.35,19.32-24.24,26.58-37.74,7.56-14.05,12.6-29.83,12.6-49.83,0-1.16-.02-2.34-.05-3.52l-.16-5.52,2.93,4.69c9.23,14.77,13.55,30.4,13.54,45.65,0,29.67-16.33,57.79-44.11,75.58,26.92-2.58,52.88-15.2,71.73-34.54l2.49-2.55.09,3.56c.02.82.03,1.64.03,2.45,0,28.77-12.53,54.44-29.33,76.67-16.81,22.23-37.93,41.08-55.36,56.24l-.98.86-.98-.86c-17.43-15.16-38.55-34.01-55.36-56.24-16.8-22.23-29.33-47.91-29.33-76.67,0-.81,0-1.63.03-2.45ZM1169.14,420.46h0s0,0,0,0h0c-12.09-13.4-20.59-33.27-20.6-52.54,0-11.84,3.25-23.49,10.97-33.1l.02-.02c8.34-9.99,18.82-17.01,30.45-21.53,11.63-4.51,24.41-6.53,37.42-6.53,25.42,0,51.73,7.66,72.29,19.61l.03.02c20.43,12.45,35.31,29.82,45.17,41.27,3.28,3.81,6.01,6.97,8.12,9.01,1.2,1.17,2.22,1.97,2.89,2.3.35.18.58.22.64.21v3s-.27.03-.62.22c-.35.18-.81.5-1.34.94-1.07.88-2.4,2.25-3.94,3.98-3.09,3.47-7.03,8.39-11.8,13.99-9.56,11.21-22.48,25.16-39.08,35.99l-.03.02c-18.02,11.24-37.62,16.76-56.76,16.76-27.58,0-54.23-11.46-73.82-33.58ZM988.21,140.11h0c3.74-27.87,15.16-53.78,33.49-74.87,6.88-7.92,14.74-14.91,23.2-21.07l55.09-40.2,55.09,40.19c8.45,6.17,16.31,13.16,23.2,21.08,18.33,21.09,29.75,46.99,33.49,74.87h0c1.41,10.77,2.09,21.47,2.09,32.03,0,28.34-4.9,55.68-13.69,80.51l-3.28,9.27.37-9.83c.13-3.53.2-6.98.2-10.35,0-32.26-5.97-57.21-17.31-78.71-11.34-21.49-28.12-39.57-49.87-57.91l-.02-.02-.03-.02c-5.05-4.66-11.14-9.28-16.83-13.86-5.1-4.1-9.89-8.15-13.4-12.27-3.51,4.12-8.3,8.17-13.4,12.27-5.7,4.57-11.78,9.2-16.83,13.86l-.04.03h-.01c-21.76,18.35-38.53,36.43-49.87,57.92-11.34,21.49-17.3,46.45-17.31,78.71,0,3.37.06,6.82.2,10.35l.37,9.83-3.28-9.28c-8.79-24.84-13.7-52.17-13.7-80.52,0-10.56.68-21.26,2.1-32.02ZM912.33,73.25h0s3.86-2.2,3.86-2.2c7.19-4.11,14.64-8.35,21.88-12.02h0s8.73-4.39,8.73-4.39h.01c.37-.19.78-.28,1.18-.28.5,0,.99.14,1.41.4h0s.03.02.03.02c.77.51,1.2,1.34,1.21,2.23v.05h0v.07c-.57,13.29-.88,25-.93,34.8h0c0,.95-.5,1.81-1.32,2.29h-.01c-.4.24-.86.36-1.32.36-.46,0-.92-.12-1.33-.35h0c-9.5-5.48-21.29-11.24-33.14-16.21h0c-.94-.39-1.56-1.28-1.62-2.29h0s0,0,0,0c0,0,0,0,0,0v-.16c0-.95.51-1.83,1.33-2.3ZM850.7,129.73h0c.2-1.06,1.04-1.89,2.08-2.1h0c8.66-1.75,21.06-3.54,35.51-3.54,17.76,0,38.61,2.71,59.34,11.57,0,0,0,0,0,0h0s0,0,0,0c.89.38,1.51,1.21,1.6,2.17,4.02,39.15,12.49,82.56,33.69,116.68v.02s7.62,13.25,7.62,13.25c0,0,.02,0,.02,0,.24.13.42.31.55.48.25.36.29.67.3.94,0,.22-.04.43-.14.66-.1.23-.27.5-.62.73-.23.15-.54.25-.85.25-.18,0-.34-.04-.49-.08-.03,0-.05,0-.09-.01-.15-.04-.35-.11-.58-.27-.13-.1-.26-.25-.37-.42-16.45-13.09-33.94-22.61-54.34-29.37-20.56-6.81-44.08-10.81-72.42-12.76h-.01c-1.01-.08-1.9-.71-2.28-1.67h0s-1.54-3.99-1.54-3.99h0c-7.07-18.06-10.59-36.81-10.59-56.63,0-11.59,1.2-23.54,3.59-35.93ZM774.66,226.81c6.28-12.81,14.01-26.85,21.78-39.55v-.02c.52-.8,1.38-1.25,2.29-1.25.02,0,.09,0,.19,0h0s0,0,0,0c0,0,.01,0,.02,0h0c1.01.09,1.86.74,2.22,1.65h0c3.98,9.76,10.47,24.3,18.78,37.98,0,0,0,0,0,0h0s0,0,0,0c.26.42.39.9.39,1.38,0,.44-.11.87-.31,1.26v.02c-.48.84-1.34,1.34-2.25,1.38h-.02c-3.93.1-8.2.17-12.47.24-4.8.08-9.59.15-13.89.29l-14.28.44h-.06c-.9,0-1.75-.46-2.23-1.22,0,0,0,0,0,0h0s0,0,0,0c-.28-.43-.43-.93-.43-1.44,0-.39.09-.79.28-1.16h0ZM818.43,534.3c-5.89,9.61-12.06,21.87-18.32,36.44h0c-.4.92-1.27,1.52-2.25,1.6h-.06s-.06,0-.06,0h-.08c-.94,0-1.79-.49-2.27-1.28-7.19-11.97-14.56-25.43-20.77-37.93h0s0,0,0,0c-.19-.38-.28-.78-.28-1.18,0-.5.13-.99.41-1.43v-.02c.23-.34.53-.64.91-.86.37-.22.83-.35,1.29-.35.03,0,.08,0,.15,0,10.66.42,20.91.81,29.21.85h.01l9.88.12h0c.97.01,1.82.53,2.29,1.36,0,0,0,0,0,0h0s0,0,0,0c.22.4.34.85.34,1.29,0,.48-.14.96-.4,1.38h0ZM791.61,463.23c-9.85-7.72-18.47-16.87-25.89-26.9l-41.72-56.31,44.64-58.25c8.23-10.73,17.85-20.39,28.82-28.35,16.46-11.95,35.28-20.14,54.99-23.73,14.47-2.63,28.92-3.88,43.15-3.88,29.19,0,57.44,5.25,82.99,14.62l9.34,3.42-34.28-1.76c-1.17-.03-2.34-.05-3.52-.05-29.57,0-58.49,9.62-82.25,27.26l-.03.02c-16.22,11.37-28.1,23.98-38.69,36.5-10.26,12.12-19.31,24.15-29.92,34.83,10.38,10.52,19.46,22.49,29.66,34.55,10.55,12.46,22.31,25.01,37.99,36.2h0s.03.02.03.02c1.23.93,2.48,1.81,3.77,2.71,21.8,15.19,47.77,22.84,74.12,22.84,7.54,0,15.1-.63,22.61-1.88l25.97-4.35-19.14,7.41c-25.69,9.96-52.94,15.45-80.5,15.45-.45,0-.89,0-1.33,0h0c-14.92-.1-29.93-1.49-43.84-4.19,0,0,0,0,0,0h0s0,0,0,0c-20.57-3.91-40.11-12.98-56.96-26.19ZM950.66,702.89c0,.91-.47,1.79-1.24,2.27,0,0,0,0,0,0h0s0,0,0,0c-.43.27-.93.41-1.42.41-.41,0-.81-.1-1.19-.29h0s-.02,0-.02,0c0,0,0,0,0,0h0l-1.26-.63c-7.6-3.84-17.07-8.63-23.95-12.67l-9.84-5.57h0c-.84-.48-1.34-1.38-1.34-2.32h0s0-.06,0-.06c0-.02,0-.05,0-.08h0s0-.02,0-.03c0-.04,0-.07.01-.13h.01c.11-.92.69-1.75,1.57-2.13h-.01c12.22-5.33,24.27-11.34,33.87-16.88h0c.41-.23.87-.36,1.34-.36.43,0,.87.11,1.28.34h0s.01,0,.02,0c0,0,.02,0,.02,0h0c.82.47,1.31,1.32,1.33,2.24l.81,35.85v.03ZM947.82,620.5v.03c-.02.18-.06.4-.14.63h0s-.65,1.95-.65,1.95h0c-.25.75-.81,1.32-1.49,1.6h0c-17.73,7.36-38.59,11.14-59.6,11.14-11.68,0-23.41-1.17-34.68-3.56h0c-1.03-.22-1.8-1.01-2.03-1.99-1.82-7.75-3.49-20.09-3.49-34.57,0-19.46,3.01-42.77,12.84-63.82h0s0,0,0,0c0,0,0,0,0,0,.39-.85,1.21-1.42,2.13-1.52l1.54-.16c35.16-3.74,77.28-11.32,112.29-33.19l.03-.02,13.04-7.67s.01-.04.02-.06c.13-.24.31-.42.49-.54.36-.24.66-.28.93-.29.23,0,.44.04.67.14.18.08.4.22.59.45.1.09.18.19.24.29.21.34.26.62.26.9,0,.2-.03.41-.13.65-.1.24-.3.54-.67.76-.08.05-.17.07-.26.11-13.38,16.97-22.8,34.27-29.41,54.65-6.69,20.61-10.5,44.39-12.54,74.1ZM1211.78,619.6h0c-3.74,27.88-15.16,53.78-33.49,74.87-6.88,7.92-14.74,14.91-23.2,21.07l-55.09,40.2-55.09-40.19c-8.45-6.17-16.31-13.16-23.19-21.08-18.33-21.09-29.75-46.99-33.49-74.87h0c-1.41-10.77-2.1-21.47-2.1-32.03,0-28.34,4.9-55.68,13.69-80.51l3.28-9.26-.36,9.82c-.13,3.53-.2,6.98-.2,10.35,0,32.26,5.97,57.21,17.31,78.71,11.34,21.49,28.12,39.57,49.87,57.92l.03.02.02.02c5.05,4.66,11.13,9.28,16.83,13.86,5.1,4.1,9.89,8.15,13.4,12.27,3.51-4.12,8.3-8.17,13.4-12.27,5.7-4.57,11.78-9.2,16.83-13.86l.03-.03.02-.02c21.76-18.34,38.53-36.42,49.87-57.91,11.34-21.49,17.3-46.45,17.31-78.71,0-3.37-.07-6.82-.2-10.36l-.36-9.79,3.27,9.24c8.79,24.84,13.7,52.17,13.7,80.52,0,10.56-.68,21.26-2.09,32.02ZM1288.23,686.39h0s-9.86,5.59-9.86,5.59h0c-6.86,4.03-16.33,8.81-23.92,12.65h0s-1.28.64-1.28.64h0c-.35.18-.77.29-1.19.29-.49,0-.98-.14-1.41-.41h0s0,0,0,0c0,0,0,0,0,0h0c-.77-.48-1.24-1.37-1.23-2.27v-.03l.81-35.85h0c.02-.93.52-1.78,1.34-2.25,0,0,0,0,0,0h.01s0,0,0,0c.4-.23.86-.35,1.31-.35.46,0,.92.12,1.33.36h0c9.61,5.54,21.65,11.55,33.86,16.89h-.01c.94.39,1.55,1.29,1.6,2.28v.02s0,.13,0,.13c0,.97-.53,1.83-1.34,2.3ZM1350.76,630.3l-1.46-.34,1.46.34c-.24,1-1.02,1.77-2.04,1.99h0s-.02,0-.02,0c0,0,0,0,0,0h0c-11.25,2.39-22.98,3.55-34.65,3.55-21.01,0-41.87-3.78-59.6-11.14-.69-.28-1.26-.86-1.5-1.62h0s-.66-1.97-.66-1.97v-.03c-.06-.18-.09-.37-.11-.56v-.03c-2.05-29.71-5.86-53.49-12.55-74.1-6.61-20.38-16.04-37.68-29.42-54.65-.09-.03-.18-.06-.25-.1-.24-.14-.41-.33-.53-.5-.22-.35-.27-.64-.27-.91,0-.21.03-.42.13-.66.08-.18.2-.38.41-.57.1-.11.2-.2.3-.27.33-.21.61-.27.92-.28.2,0,.42.03.68.14.25.11.55.33.75.69,0,.01.01.03.02.05l13.08,7.7h.02c32.87,21.23,77.12,29.45,112.26,33.19l1.55.16c.92.1,1.73.67,2.13,1.52,9.83,21.05,12.84,44.36,12.84,63.82,0,14.48-1.67,26.82-3.49,34.57ZM1425.36,533.12s0,.01,0,.02h0c-6.2,12.48-13.56,25.93-20.76,37.92v.02c-.5.77-1.34,1.26-2.28,1.26h-.2c-.97-.08-1.83-.67-2.24-1.6h0c-6.25-14.57-12.43-26.84-18.32-36.44h0c-.26-.42-.39-.9-.39-1.39,0-.43.11-.87.33-1.28h0s0,0,0-.01c0,0,0,0,0-.01h0c.47-.82,1.32-1.33,2.28-1.34h0s9.87-.12,9.87-.12h.01c8.31-.04,18.56-.43,29.22-.85h0s.08,0,.15,0c.46,0,.93.12,1.31.36.38.23.67.54.87.85.28.44.43.94.43,1.44,0,.4-.1.81-.28,1.18h0ZM1408.37,463.23c-16.85,13.21-36.39,22.28-56.96,26.19h0,0s0,0,0,0c-13.91,2.69-28.92,4.09-43.84,4.19-.45,0-.89,0-1.34,0-27.56,0-54.8-5.49-80.48-15.45l-19.14-7.4,25.96,4.35c7.51,1.25,15.08,1.88,22.61,1.88,26.34,0,52.31-7.65,74.12-22.84,1.29-.9,2.54-1.78,3.76-2.71h0s.04-.03.04-.03c15.68-11.18,27.45-23.73,38-36.2,10.21-12.06,19.28-24.03,29.66-34.55-10.61-10.67-19.66-22.71-29.92-34.83-10.6-12.52-22.47-25.14-38.69-36.5h-.01s-.02-.02-.02-.02c-23.77-17.64-52.68-27.26-82.25-27.26-1.17,0-2.34.01-3.51.05l-34.23,1.75,9.29-3.41c25.54-9.36,53.79-14.62,82.99-14.62,14.23,0,28.68,1.25,43.15,3.88,19.71,3.59,38.52,11.78,54.99,23.73,10.98,7.96,20.58,17.62,28.81,28.35l44.64,58.24-41.72,56.31c-7.43,10.03-16.05,19.17-25.89,26.9Z"/>
  <path class="cls-1" d="M1.5,1270.48v9.66h120.3v-9.68l-45.67-20.54,37.3-94.38h130.24l37.29,94.38-47.88,20.54v9.69h174.89v-9.67l-37.56-20.61-142.21-350.26h0l-.08-.21h-48.96l-143.95,351.61-33.7,19.47ZM178.81,991.49l51.1,129.91.81,2.05h-104.36l52.45-131.96Z"/>
  <polygon class="cls-1" points="2198.5 902.25 2050.08 902.25 2050.08 911.95 2112.94 934.81 2112.94 1152.04 1899.57 902.37 1899.57 902.36 1899.48 902.25 1794.24 902.25 1794.24 911.92 1841.11 935.93 1841.11 1247.03 1794.24 1270.47 1794.24 1280.14 1943.21 1280.14 1943.21 1270.44 1880.36 1247.01 1880.36 1008.06 2117.43 1282.88 2117.52 1283 2152.18 1283 2152.18 935.36 2198.5 911.92 2198.5 902.25"/>
  <path class="cls-1" d="M1756.11,1169.05c9.52-23.54,14.36-49.73,14.36-77.85,0-28.12-4.84-54.31-14.36-77.86-9.54-23.57-23.01-44.27-40.05-61.55-17.04-17.29-37.39-30.96-60.48-40.65-23.07-9.68-48.71-14.6-76.22-14.6-27.14,0-52.59,4.92-75.66,14.6-23.09,9.69-43.44,23.36-60.48,40.65-17.05,17.3-30.52,38-40.05,61.55-9.52,23.53-14.36,49.72-14.36,77.86,0,28.15,4.84,54.33,14.36,77.85,9.53,23.56,23,44.26,40.05,61.55,17.03,17.28,37.37,30.96,60.48,40.65,23.08,9.68,48.53,14.6,75.66,14.6,27.51,0,53.14-4.92,76.22-14.6,23.11-9.7,43.45-23.37,60.48-40.65,17.03-17.28,30.51-37.98,40.05-61.55ZM1669.76,1185.97c-7.83,21.88-18.91,39.17-32.99,51.31-13.98,12.06-30.4,18.22-48.58,18.21-20.42,0-39.33-7.71-56.02-22.78-16.83-15.16-30.32-36.68-40.16-63.88-9.88-27.31-14.87-59.58-14.87-95.91,0-29.5,4.15-55.61,12.39-77.62,8.19-21.88,19.55-39.07,33.81-51.02,14.17-11.88,30.68-17.94,48.87-17.93,20.39,0,39.12,7.61,55.47,22.49,16.47,15,29.68,36.41,39.33,63.6,9.7,27.33,14.59,59.6,14.59,95.92,0,29.5-3.97,55.61-11.84,77.62Z"/>
</svg>