<?xml version="1.0" encoding="UTF-8"?>
<svg id="SocialMedia_Combo" xmlns="http://www.w3.org/2000/svg" viewBox="0 0 1600 1600">
  <defs>
    <style>
      .cls-1 {
        fill: #fff;
      }
    </style>
  </defs>
  <path class="cls-1" d="M377.15,1222.85c108.22,108.22,257.71,175.15,422.86,175.15,165.14,0,314.62-66.93,422.84-175.15,108.22-108.22,175.15-257.71,175.15-422.85,0-165.14-66.93-314.63-175.15-422.85-108.22-108.22-257.71-175.15-422.84-175.15-165.15,0-314.63,66.93-422.86,175.15-108.22,108.22-175.15,257.71-175.15,422.85,0,165.14,66.93,314.63,175.15,422.85ZM355.56,1042.7l-.5.82c-9.31,15.2-19.06,34.57-28.96,57.59h0s0,0,0,0h0c-.57,1.31-1.83,2.18-3.24,2.29h0s0,0,0,0h-.07s-.04,0-.04,0h-.17c-1.34,0-2.58-.7-3.27-1.85-11.35-18.89-22.98-40.14-32.79-59.87h0s0,0,0,0c-.27-.54-.4-1.13-.4-1.7,0-.71.2-1.43.59-2.05h0s0-.02,0-.02c.51-.8,1.33-1.42,2.33-1.65v-.13l1.04.04c16.84.66,33.03,1.27,46.14,1.34h.01l16.58.2v.13c.94.26,1.75.88,2.25,1.74h0s0,0,0,0h0s.04.06.05.09h0s0,0,0,0h0s0,0,0,0h0s.02.05.04.08h0s0,0,0,0h0c.29.55.44,1.16.44,1.77,0,.37-.06.75-.17,1.1l.1.07ZM563.81,1309.97c0,1.28-.65,2.47-1.7,3.17h0s0,0,0,0h0s-.06.04-.09.06h0s0,0,0,0,0,0,0,0h0s-.03.01-.04.02h0s0,0,0,0h0s-.04.02-.06.03h0s0,0,0,0h0c-.59.35-1.26.53-1.93.53-.22,0-.44-.04-.65-.08l-.06.16-3.01-1.52c-12-6.06-26.93-13.61-37.78-19.98h0l-15.55-8.81h0c-.95-.54-1.59-1.45-1.83-2.48h-.38l.28-1.14.02-.88h.17c.33-1.02,1.07-1.87,2.09-2.32h0s0,0,0,0h0s0,0,0,0h0s0,0,0,0h0s0,0,0,0h0c19.3-8.43,38.33-17.92,53.51-26.68h0s0,0,0,0h0c.59-.34,1.25-.52,1.92-.52.31,0,.62.04.92.12l.14-.24.82.61,1.01.41-.16.25c.67.69,1.07,1.6,1.09,2.58l1.27,56.6h0s0,.04,0,.04v.06s0,0,0,0ZM559.32,1179.81h0s.11.05.11.05l-1.35,4.02-.35,1.04-.17-.09c-.42.58-.97,1.03-1.62,1.3-27.95,11.6-60.84,17.56-93.98,17.56-18.42,0-36.91-1.84-54.68-5.61l-1.01-.22.03-.14c-.98-.51-1.69-1.43-1.95-2.51-2.87-12.21-5.5-31.67-5.5-54.51,0-30.69,4.75-67.44,20.24-100.62h0s0,0,0,0h0s0-.02.01-.02h0s0,0,0,0h0s0,0,0,0c.57-1.21,1.73-2.02,3.05-2.16l2.43-.26c55.53-5.91,122.11-17.87,177.48-52.46h0s.02-.01.02-.01h.02s20.69-12.19,20.69-12.19c.02-.05.04-.11.07-.16,0,0,0,0,0,0h0s0,0,0,0c.18-.33.41-.57.66-.74h.01c.44-.31.94-.39,1.23-.39h0s.01,0,.01,0c.28,0,.61.06.9.19h.01c.24.11.48.3.69.52h0c.16.13.32.28.46.49h0c.26.42.36.89.35,1.22h0v.02c0,.25-.05.57-.18.88h0c-.14.33-.41.74-.9,1.02,0,0,0,0,0,0h0s0,0,0,0c-.15.09-.3.15-.45.19-21.18,26.85-36.1,54.23-46.56,86.48-10.57,32.59-16.59,70.17-19.82,117.1ZM976.14,1178.36v.03s0,0,0,0h0c-5.9,43.93-23.9,84.76-52.79,118-10.85,12.47-23.24,23.5-36.57,33.21l-86.78,63.32-86.78-63.3c-13.33-9.73-25.72-20.75-36.57-33.22-28.88-33.24-46.9-74.06-52.78-117.99h0s0-.05,0-.05c-2.23-16.98-3.3-33.86-3.3-50.52,0-44.71,7.73-87.84,21.59-127.01l4.37-12.34-.48,13.08c-.21,5.58-.31,11.03-.31,16.36,0,50.98,9.44,90.46,27.38,124.46,17.94,33.99,44.46,62.58,78.82,91.55l.02.02.03.03.03.02c8,7.38,17.61,14.68,26.6,21.9,8.19,6.58,15.86,13.08,21.4,19.65,5.54-6.57,13.21-13.07,21.39-19.65,8.99-7.22,18.6-14.52,26.59-21.9l.03-.03.02-.02h.02c34.37-28.99,60.9-57.58,78.84-91.58,17.94-34,27.37-73.48,27.37-124.46,0-5.33-.1-10.78-.31-16.37l-.49-13.08,4.37,12.34c13.87,39.18,21.61,82.3,21.61,127.02,0,16.66-1.07,33.54-3.3,50.52ZM484.82,715.67l.03-.02h0c32.39-18.83,73.9-30.9,113.95-30.91,20.51,0,40.65,3.17,58.96,10.28,18.31,7.11,34.81,18.17,47.94,33.89h0s.01.02.01.02v.02s0,0,0,0c12.11,15.06,17.22,33.33,17.24,51.93h0v.11c-.02,30.33-13.42,61.64-32.45,82.73l-.3.33h0c-30.85,34.65-72.69,52.59-116.01,52.58-30.16,0-61.04-8.69-89.43-26.41h0s-.03-.02-.03-.02c-32.18-21.01-55.65-49.49-71.21-68.18-5.18-6.23-9.48-11.37-12.85-14.73-1.91-1.91-5.65-6.19-5.81-6.18h0c.17,0,7.19-7.34,9.62-9.99,4.89-5.32,11.1-12.83,18.64-21.35,15.08-17.04,35.48-38.12,61.66-54.07l.19.31-.18-.32ZM809.48,402.43c5,4.81,12.12,10.93,20.27,18.35,16.31,14.84,36.82,34.87,53.4,60.45v.02s.02.01.02.01c17.16,26.62,30.27,57.98,35.65,89.91l.39,2.33h-238.45l.39-2.33c5.38-31.94,18.5-63.31,35.68-89.93,20.4-31.47,46.74-54.56,63.89-69.87,5.71-5.1,10.41-9.34,13.45-12.65,1.74-1.88,5.81-5.55,5.81-5.73h0c0,.19,7,7.06,9.49,9.46ZM1115.14,715.66h0s-.03.06-.03.06l.04-.06h.02s0,.01,0,.01c32.19,19.62,55.67,47.02,71.24,65.09,5.18,6.02,9.49,11.01,12.85,14.26,1.91,1.85,5.66,6.07,5.83,6.07h0c-.16,0-7.17,7.49-9.6,10.24-4.89,5.49-11.1,13.26-18.64,22.1-15.08,17.68-35.47,39.69-61.63,56.76l-.06-.08.05.08h-.02s-.01.02-.01.02c-28.4,17.72-59.27,26.41-89.44,26.41-43.47,0-85.44-18.05-116.31-52.92h0c-19.03-21.08-32.43-52.39-32.45-82.72h0c0-18.64,5.11-36.95,17.25-52.03l.02-.02h0s.01-.02.01-.02h0c13.13-15.71,29.62-26.77,47.93-33.87,18.32-7.11,38.45-10.28,58.96-10.28,40.06,0,81.57,12.08,113.97,30.91l-.16.27.17-.27ZM665.06,1000.05c0-1.27.02-2.55.05-3.83h0l.12-4.74,3.31,3.4c30.19,30.98,71.92,51.06,115.07,54.8-44.58-27.98-70.82-72.68-70.82-119.85,0-24.01,6.8-48.62,21.34-71.9l3.91-6.25-.21,7.37c-.06,1.89-.08,3.76-.08,5.61,0,31.64,7.99,56.61,19.95,78.84,11.56,21.49,26.88,40.39,42.29,60.01,15.41-19.62,30.74-38.53,42.3-60.02,11.96-22.23,19.94-47.21,19.95-78.86,0-1.84-.03-3.69-.08-5.57l-.21-7.37,3.91,6.25c14.49,23.2,21.29,47.73,21.33,71.66h0v.23c0,47.18-26.24,91.88-70.82,119.86,43.16-3.74,84.87-23.82,115.07-54.8l3.31-3.4.12,4.75c.03,1.29.05,2.58.05,3.86,0,45.31-19.74,85.78-46.24,120.85-26.51,35.07-59.85,64.82-87.36,88.76l-1.31,1.14-.66-.57-.66-.57c-27.51-23.94-60.85-53.69-87.36-88.76-26.51-35.06-46.24-75.54-46.24-120.85h0v-.03ZM768.19,753.63c-5.81-12.9-8.46-26.93-8.46-41.05.02-33.84,15.14-68.29,38.91-89.83l1.34-1.22.67.61.67.61c23.76,21.54,38.89,55.99,38.91,89.84,0,14.12-2.65,28.14-8.46,41.04-5.5,12.21-13.85,23.39-25.39,32.67,11.91,9.72,20.65,19.97,26.48,30.64,6.11,11.18,9,22.82,9.03,34.65h0v.22c0,13.7-3.82,27.64-10.76,41.53-6.94,13.89-17.01,27.76-29.6,41.41l-.21.23-1,1.8-.33-.36-.18.19-.7-1.06-.23-.35-.43-.46c-12.59-13.65-22.66-27.52-29.61-41.41-6.94-13.89-10.76-27.82-10.76-41.53h0c0-11.91,2.89-23.62,9.03-34.86,5.82-10.67,14.57-20.93,26.47-30.64-11.54-9.28-19.89-20.47-25.39-32.67ZM921.26,609.83l-.06,1.06c-.67,11.47-3.82,23.94-9.26,34.38h0s0,0,0,.01c0,0,0,0,0,0h0s0,.02-.01.03h0s0,0,0,0h0c-1.24,2.4-2.7,4.53-4.11,6.6v.02s-26.47,37.74-26.47,37.74v.1l-.19.26-.19.26c-2.44,3.37-7.26,9.83-8.87,11.93-.23.3-.39.51-.52.66h0s-2.87,3.37-2.87,3.37l-.63-4.38c-4.76-32.95-22.45-63.27-43.67-89.85l-2.59-3.25h99.52l-.06,1.06ZM774.02,608.78h4.15l-2.59,3.25c-21.23,26.58-38.92,56.91-43.68,89.85l-.63,4.38-2.87-3.37h0c-.13-.16-.29-.36-.52-.66-.23-.3-.53-.69-.87-1.15-.69-.91-1.57-2.09-2.52-3.37-1.9-2.55-4.07-5.49-5.47-7.41l-.38-.53v-.1l-26.43-37.72-.02-.03h0c-1.43-2.09-2.9-4.22-4.14-6.64h0s0,0,0-.01c0,0,0,0,0,0h0s0,0,0,0h0c-5.44-10.44-8.58-22.91-9.25-34.38l-.12-2.12h95.38ZM1098.98,1280.26c0,1.38-.75,2.62-1.91,3.3h0s-.02.01-.02.01l-15.57,8.83h0c-10.82,6.36-25.77,13.91-37.76,19.97l-2.02,1.02s0,0,0,0h0s0,0,0,0c-.52.26-1.11.42-1.72.42-.7,0-1.39-.2-2-.57h0s0,0,0,0h0s-.02-.01-.03-.02h0s0,0,0,0c0,0,0,0,0,0h0s0,0,0,0h0s0,0,0,0h0s-.02-.02-.03-.02h0s0,0,0,0h0c-.81-.53-1.39-1.34-1.62-2.27h-.14l1.31-57.63c.02-.97.42-1.89,1.08-2.57l-.18-.28,1.02-.39.85-.71.16.32c.29-.07.59-.11.89-.11.66,0,1.33.18,1.92.52h0s0,0,0,0h0c15.18,8.76,34.2,18.25,53.5,26.68h0s0,0,0,0h0s0,0,0,0h0s.02.01.03.02h0s0,0,0,0h0c1.32.59,2.17,1.86,2.25,3.27v.03s0,0,0,0v.15s0,.03,0,.03ZM1195.84,1194.25l-.23.95s0,.01,0,.02l-.23.97-.14-.03c-.35.65-.88,1.19-1.53,1.54l.05.15-1.09.23c-17.76,3.77-36.26,5.61-54.68,5.61-33.13,0-66.03-5.96-93.98-17.56-.99-.41-1.8-1.23-2.16-2.31h0s-1.04-3.12-1.04-3.12v-.02s-.01-.03-.01-.03h0c-.07-.27-.12-.54-.15-.81h0s0-.03,0-.03h0c-3.23-46.94-9.26-84.52-19.83-117.1-10.47-32.25-25.38-59.64-46.57-86.49-.15-.04-.3-.1-.45-.19,0,0,0,0,0,0h0s0,0,0,0c-.32-.19-.55-.43-.71-.67h0c-.28-.43-.36-.92-.36-1.22v-.02c0-.26.05-.58.18-.88h0c.13-.29.3-.5.49-.69.16-.21.34-.38.51-.49h0s.01,0,.01,0c.39-.25.86-.36,1.21-.36h0s.02,0,.02,0c.25,0,.59.05.91.19,0,0,0,0,0,0h0s0,0,0,0c.36.16.74.45,1.01.94h0s0,0,0,0c0,0,0,0,0,0h0c.03.05.04.1.06.15l20.76,12.21.03.02h0c51.99,33.55,121.92,46.54,177.43,52.44l2.45.26c1.33.14,2.49.96,3.06,2.19,15.49,33.18,20.24,69.94,20.24,100.62,0,22.25-2.5,41.27-5.28,53.53h.01ZM1313.43,1041.7c-9.78,19.7-21.42,40.95-32.77,59.86h0s0,.02,0,.02h0c-.7,1.12-1.92,1.82-3.27,1.83h-.25s-.04,0-.04,0c-1.39-.11-2.65-.97-3.23-2.29v-.02s-.02-.01-.02-.01c-9.88-23-19.64-42.38-28.95-57.56h0c-.37-.61-.56-1.3-.56-2,0-.33.04-.65.13-.98l-.18-.12.54-.77.46-.99.21.14c.46-.45,1.02-.78,1.64-.96v-.13l16.57-.2h.01c13.13-.07,29.32-.68,46.16-1.34l1.04-.04v.13c.38.08.74.22,1.07.42,0,0,0,0,0,0h0s0,0,0,0c.55.33.96.77,1.26,1.23h0s0,0,0,0c.41.63.62,1.35.62,2.08,0,.21-.04.41-.07.61l.18.06-.45.9-.07.14ZM1242.53,556.49h0s0,0,0,0c13.14-21.64,23.4-44.61,29.66-60.03.54-1.33,1.78-2.26,3.24-2.38v.08s0-.08,0-.08h.04s.02,0,.02,0h.19s.02,0,.02,0c1.32,0,2.56.66,3.28,1.8h0s0,.02,0,.02h0c12.25,20.06,24.46,42.2,34.37,62.43h0c.26.53.39,1.11.39,1.68,0,.72-.2,1.42-.58,2.04h0s0,.03,0,.03c-.71,1.11-1.93,1.76-3.23,1.76h-.11l-22.51-.69c-6.8-.22-14.37-.34-21.95-.46-6.71-.11-13.42-.22-19.61-.38l3,5.63-5.46-6.55c-.35-.3-.65-.66-.88-1.09h0s0,0,0,0h0s0,0,0-.01h0s-3.85-7.7-3.85-7.7l3.7,4.43c.07-.17.16-.35.26-.51h0ZM1277.51,663.65c17.3,12.54,32.44,27.77,45.42,44.69l70.32,91.75-65.71,88.7c-11.71,15.82-25.3,30.23-40.82,42.4-26.57,20.83-57.37,35.11-89.79,41.28h0c-21.94,4.25-45.62,6.45-69.16,6.6-.7,0-1.41,0-2.11,0-43.46,0-86.44-8.67-126.96-24.37l-26.85-10.39,37.41,6.26c11.88,1.98,23.85,2.97,35.77,2.97,41.67,0,82.75-12.1,117.26-36.13,2.03-1.41,4.01-2.82,5.94-4.28l.05-.04.02-.02c24.79-17.68,43.39-37.52,60.05-57.21,16.21-19.15,30.59-38.15,47.05-54.8-16.83-16.89-31.18-35.99-47.46-55.23-16.74-19.79-35.52-39.73-61.17-57.7l-.02-.02h-.02s0-.02,0-.02h0c-37.61-27.91-83.32-43.12-130.1-43.12-1.85,0-3.71.02-5.56.07l-51.67,2.66,12.43-4.56c40.29-14.77,84.86-23.06,130.92-23.06,22.45,0,45.24,1.97,68.06,6.12,31.08,5.66,60.72,18.57,86.69,37.41ZM1036.15,290.02c0-1.28.65-2.46,1.7-3.17h0s0,0,0,0h0s.03-.02.04-.03h0s0,0,0,0h0s0,0,0,0l8.13-5.33-4.92,4.92c.19.06.39.12.58.21l13.79,6.93h0c11.64,5.88,23.59,12.72,35.12,19.31l5.52,3.16.03.02h0s0,0,0,0c1.15.69,1.87,1.93,1.87,3.28v.15s0,.04,0,.04h0s0,.03,0,.03c-.06,1.09-.58,2.09-1.41,2.75l.07.13-.98.41c-18.76,7.87-37.36,16.98-52.35,25.62l-.03.02h-.02s0,.01,0,.01h0c-.57.31-1.21.48-1.85.48-.64,0-1.3-.16-1.89-.5h0s-.03-.01-.03-.01h-.01c-1.16-.69-1.89-1.94-1.89-3.31h0c-.07-15.44-.55-33.93-1.46-54.96h0v-.15s0-.02,0-.02ZM985.17,602.07h0c34.19-54.96,46.86-122.53,53.22-184.38.14-1.38,1.01-2.57,2.29-3.12h0s0,0,0,0h0s0,0,.01,0h0s0,0,0,0h0c32.67-13.98,65.55-18.25,93.55-18.25,22.78,0,42.35,2.83,56.01,5.58h.01s0,0,0,0c1.46.3,2.61,1.43,2.94,2.91h0s0,0,0,0h0s.02.07.03.11h0s0,0,0,0h0s0,0,0,0h0s0,0,0,0h0s0,0,0,.01h0s0,0,0,0c3.77,19.54,5.67,38.38,5.67,56.63,0,31.25-5.56,60.81-16.7,89.29h0l-2.44,6.28h0s0,0,0,0h0c-.54,1.36-1.79,2.29-3.24,2.41h0s-.04,0-.04,0h-.02c-44.76,3.07-81.94,9.39-114.45,20.16-32.27,10.69-59.95,25.77-85.97,46.48h0c-.2.36-.45.59-.73.75h-.01c-.25.16-.55.24-.74.26-.19.06-.4.11-.64.11h0c-.42,0-.79-.11-1.12-.32,0,0,0,0,0,0h0s0,0,0,0c-.31-.19-.52-.44-.67-.66h0c-.26-.41-.36-.88-.35-1.22h0s0-.02,0-.02c0-.25.05-.59.19-.91,0,0,0,0,0,0h0s0,0,0,0c.16-.36.45-.74.94-1.01,0,0,0,0,0,0h0s0,0,0,0c.04-.02.08-.03.12-.05l12.09-21.06.02-.02ZM623.84,421.29h0s0-.03,0-.03c5.9-43.93,23.9-84.76,52.79-118,10.85-12.47,23.24-23.5,36.57-33.21l86.78-63.32,86.78,63.3c13.33,9.73,25.72,20.75,36.57,33.22,28.88,33.24,46.9,74.06,52.78,117.99h0s0,.05,0,.05c2.23,16.98,3.3,33.86,3.3,50.52,0,44.71-7.73,87.83-21.59,127.01l-4.38,12.38.25-6.57.25-6.56c.21-5.58.31-11.04.31-16.36,0-50.98-9.44-90.46-27.38-124.46-17.95-34-44.47-62.58-78.83-91.56h0s-.03-.03-.03-.03h-.01s-.02-.03-.02-.03h0c-8-7.39-17.61-14.69-26.6-21.91-8.19-6.58-15.86-13.08-21.4-19.65-5.54,6.57-13.21,13.07-21.39,19.65-8.99,7.22-18.6,14.52-26.59,21.9h-.01s-.03.04-.03.04h0s-.01.01-.01.01h0c-34.37,28.99-60.9,57.57-78.84,91.57-17.94,34-27.37,73.48-27.37,124.46,0,5.33.1,10.78.31,16.37l.5,13.14-4.38-12.39c-13.87-39.18-21.61-82.31-21.61-127.02,0-16.66,1.07-33.54,3.3-50.52ZM501.9,319.31c0-1.37.74-2.64,1.93-3.32h.02s0-.01,0-.01l6.09-3.47c11.36-6.49,23.12-13.19,34.54-18.97h.02s.01-.02.01-.02h0s13.77-6.92,13.77-6.92h0s0,0,0,0h.02c.53-.27,1.12-.4,1.7-.4.72,0,1.42.2,2.04.58h.01s.02.02.02.02h.01c1.1.73,1.73,1.95,1.74,3.22h0s0,.12,0,.12h0s0,.03,0,.03h0v.02c-.89,20.99-1.39,39.48-1.46,54.95h0s0,0,0,0h0s0,0,0,0c0,1.36-.73,2.61-1.89,3.3h-.01s-.02.02-.02.02h-.01s0,0,0,0c-.58.32-1.22.49-1.87.49-.67,0-1.33-.17-1.91-.51h-.02s0-.02,0-.02c-15.01-8.66-33.63-17.75-52.36-25.61l-.99-.41.07-.13c-.83-.67-1.35-1.66-1.41-2.75h0s0-.02,0-.02v-.19s0-.02,0-.02ZM406.69,404.96h0s0-.01,0-.02h0s0,0,0,0c0,0,0,0,0,0h0s0,0,0,0h0s0,0,0,0h0s.02-.07.03-.11h0s0,0,0,0h0c.33-1.48,1.5-2.61,2.97-2.91,13.66-2.75,33.22-5.58,55.99-5.58,28.01,0,60.89,4.27,93.57,18.25h0c1.28.55,2.16,1.74,2.3,3.12,6.35,61.83,19.72,130.42,53.23,184.38h.01s12.09,21.08,12.09,21.08c.04.02.08.03.12.05h0s0,0,0,0c0,0,0,0,0,0h0c.32.18.56.41.73.66l-.02-.02.02.03s0,0,0,0h0c.3.44.39.95.39,1.25h0v.02c0,.28-.06.6-.18.89h0c-.12.3-.38.7-.82.98-.33.21-.71.33-1.14.33h0c-.25,0-.46-.05-.65-.11-.11-.02-.23-.04-.35-.08,0,0,0,0,0,0h0s0,0,0,0c-.18-.06-.36-.15-.56-.29-.19-.14-.38-.34-.54-.6l-.02-.04c-26.02-20.71-53.7-35.78-85.97-46.47-32.51-10.77-69.68-17.09-114.44-20.16h-.02s-.02,0-.02,0h0s0,0,0,0c-1.43-.12-2.7-1.03-3.25-2.4h0s0-.02,0-.02h0s-2.43-6.27-2.43-6.27h0c-11.14-28.48-16.69-58.03-16.69-89.29,0-18.26,1.89-37.1,5.66-56.64h0ZM286.76,557.75h.1c9.86-20.07,21.95-42,34.09-61.86h0s0-.01,0-.01h0c.57-.92,1.48-1.51,2.48-1.72v-.38l1.15.3.96.03-.02.2c1.01.37,1.82,1.14,2.23,2.15,6.28,15.44,16.54,38.41,29.68,60.03,0,0,0,0,0,0h0s0,0,0,0c.37.61.56,1.3.56,1.98,0,.63-.16,1.26-.46,1.82h0s0,.01,0,.01h0c-.67,1.22-1.91,1.94-3.23,2h-.01s-.02,0-.02,0h0c-6.2.16-12.95.27-19.69.38-7.58.12-15.15.24-21.94.46l-22.52.69h-.1c-1.28,0-2.47-.64-3.17-1.7h0s0,0,0,0h0s-.03-.04-.04-.06h0s0,0,0,0c0,0,0,0,0,0h0s0-.01-.01-.02h0s0,0,0,0h0s0-.01-.01-.02h0s0,0,0,0h0c-.38-.61-.59-1.31-.59-2.02,0-.24.04-.48.08-.72l-.13-.07.42-.84.21-.62ZM322.46,663.65c25.95-18.84,55.62-31.75,86.68-37.41,22.83-4.15,45.62-6.12,68.07-6.11,46.06,0,90.62,8.29,130.92,23.06l12.44,4.56-51.68-2.66c-1.86-.05-3.71-.07-5.56-.07-46.76,0-92.47,15.2-130.04,43.08h0s-.07.05-.07.05l-.02.02h-.01c-25.64,17.98-44.43,37.93-61.17,57.71-16.28,19.24-30.63,38.34-47.46,55.23,16.47,16.65,30.85,35.65,47.06,54.8,16.67,19.69,35.27,39.54,60.06,57.22h0s.02.01.02.01h0s.01.02.01.02c1.95,1.47,3.93,2.87,5.96,4.29,34.49,24.03,75.58,36.13,117.25,36.13,11.92,0,23.89-.99,35.77-2.97l37.46-6.28-26.88,10.4c-40.52,15.71-83.51,24.37-126.97,24.37-.71,0-1.41,0-2.11,0-23.53-.15-47.21-2.35-69.16-6.6h0c-32.42-6.17-63.22-20.45-89.79-41.28-15.52-12.17-29.11-26.58-40.82-42.4l-65.71-88.7,70.32-91.76c12.98-16.92,28.14-32.15,45.43-44.69Z"/>
</svg>